# xmcd
#
# Track frame offsets:
#       150
#       14045
#       26743
#       41751
#       59049
#       74090
#       98441
#       112689
#       125483
#       139480
#       153741
#       169574
#       189015
#       202600
#
# Disc length: 2875 seconds
#
# Revision: 3
# Processed by: cddbd v1.5.2PL0 Copyright (c) Steve Scherf et al.
# Submitted via: FreeDbEdit v0.1
#
DISCID=c10b390e
DTITLE=Emmylou Harris - Last Date
DYEAR=1982
DGENRE=Country
TTITLE0=I'm Movin' On
TTITLE1=It's Not Love (But It's Not Bad)
TTITLE2=So Sad (To Watch Good Love Go Bad)
TTITLE3=Return of the Grievous Angel
TTITLE4=Restless
TTITLE5=Racing in the Street
TTITLE6=Long May You Run
TTITLE7=We'll Sweep Out the Ashes (In the Morning)
TTITLE8=Juanita
TTITLE9=Devil in Disguise
TTITLE10=(Lost His Love) On Our Last Date
TTITLE11=Buckaroo-Love's Gonna Live Here (Medley)
TTITLE12=Another Pot O' Tea
TTITLE13=Maybe Tonight
EXTD=
EXTT0=
EXTT1=
EXTT2=
EXTT3=
EXTT4=
EXTT5=
EXTT6=
EXTT7=
EXTT8=
EXTT9=
EXTT10=
EXTT11=
EXTT12=
EXTT13=
PLAYORDER=
